HIERARCHY
ROOT root
{
	OFFSET 0.000000 0.000000 0.000000
	CHANNELS 6 Xposition Yposition Zposition Zrotation Yrotation Xrotation
	JOINT lhip
	{
		OFFSET 0.058581 -0.082280 -0.017664
		CHANNELS 3 Zrotation Yrotation Xrotation
		JOINT lknee
		{
			OFFSET 0.043451 -0.386469 0.008037
			CHANNELS 3 Zrotation Yrotation Xrotation
			JOINT lankle
			{
				OFFSET -0.014790 -0.426874 -0.037428
				CHANNELS 3 Zrotation Yrotation Xrotation
				JOINT ltoe
				{
					OFFSET 0.041054 -0.060286 0.122042
					CHANNELS 3 Zrotation Yrotation Xrotation
					End Site
					{
						OFFSET 0.000000 0.000000 0.000000
					}
				}
			}
		}
	}
	JOINT rhip
	{
		OFFSET -0.060310 -0.090513 -0.013543
		CHANNELS 3 Zrotation Yrotation Xrotation
		JOINT rknee
		{
			OFFSET -0.043257 -0.383688 -0.004843
			CHANNELS 3 Zrotation Yrotation Xrotation
			JOINT rankle
			{
				OFFSET 0.019056 -0.420046 -0.034562
				CHANNELS 3 Zrotation Yrotation Xrotation
				JOINT rtoe
				{
					OFFSET -0.034840 -0.062106 0.130323
					CHANNELS 3 Zrotation Yrotation Xrotation
					End Site
					{
						OFFSET 0.000000 0.000000 0.000000
					}
				}
			}
		}
	}
	JOINT lowerback
	{
		OFFSET 0.004439 0.124404 -0.038385
		CHANNELS 3 Zrotation Yrotation Xrotation
		JOINT upperback
		{
			OFFSET 0.004488 0.137956 0.026820
			CHANNELS 3 Zrotation Yrotation Xrotation
			JOINT chest
			{
				OFFSET -0.002265 0.056032 0.002855
				CHANNELS 3 Zrotation Yrotation Xrotation
				JOINT lowerneck
				{
					OFFSET -0.013390 0.211636 -0.033468
					CHANNELS 3 Zrotation Yrotation Xrotation
					JOINT upperneck
					{
						OFFSET 0.010113 0.088937 0.050410
						CHANNELS 3 Zrotation Yrotation Xrotation
						End Site
						{
							OFFSET 0.000000 0.000000 0.000000
						}
					}
				}
				JOINT lclavicle
				{
					OFFSET 0.071702 0.114000 -0.018898
					CHANNELS 3 Zrotation Yrotation Xrotation
					JOINT lshoulder
					{
						OFFSET 0.122921 0.045205 -0.019046
						CHANNELS 3 Zrotation Yrotation Xrotation
						JOINT lelbow
						{
							OFFSET 0.255332 -0.015649 -0.022946
							CHANNELS 3 Zrotation Yrotation Xrotation
							JOINT lwrist
							{
								OFFSET 0.265709 0.012698 -0.007375
								CHANNELS 3 Zrotation Yrotation Xrotation
								End Site
								{
									OFFSET 0.000000 0.000000 0.000000
								}
							}
						}
					}
				}
				JOINT rclavicle
				{
					OFFSET -0.082954 0.112472 -0.023707
					CHANNELS 3 Zrotation Yrotation Xrotation
					JOINT rshoulder
					{
						OFFSET -0.113228 0.046853 -0.008472
						CHANNELS 3 Zrotation Yrotation Xrotation
						JOINT relbow
						{
							OFFSET -0.260127 -0.014369 -0.031269
							CHANNELS 3 Zrotation Yrotation Xrotation
							JOINT rwrist
							{
								OFFSET -0.269108 0.006794 -0.006027
								CHANNELS 3 Zrotation Yrotation Xrotation
								End Site
								{
									OFFSET 0.000000 0.000000 0.000000
								}
							}
						}
					}
				}
			}
		}
	}
}
MOTION
Frames: 8
Frame Time: 0.033333
0.970192 3.033383 0.986401 -73.341969 -1.079647 86.662342 -0.095892 4.859328 5.832179 -5.197041 3.713052 1.042585 2.749872 16.158513 -15.008718 0.000000 -0.000000 0.000000 -1.795613 -8.146905 -2.321928 -1.663521 -11.996102 23.766800 3.377810 -13.032100 -15.225811 0.000000 -0.000000 0.000000 2.975251 0.759781 1.976397 0.649283 -2.560323 13.076146 -1.359734 -2.991397 -2.148763 2.716033 4.157529 -0.821162 -1.687653 4.463301 20.509101 -29.863791 1.525909 4.012204 -57.116051 -6.078095 8.418285 10.463839 -27.518370 -3.484973 -1.147235 -8.665575 -4.411678 29.613014 5.603908 3.505685 51.472287 7.100396 14.262290 -9.204578 27.144132 -4.344391 1.673564 8.895579 -3.795588 
0.968867 3.028734 0.985911 -72.455591 -0.971918 86.467803 -0.140568 4.941609 6.438994 -5.310051 3.054644 0.454416 2.918396 15.986831 -14.880837 0.000000 -0.000000 0.000000 -1.881321 -8.031654 -3.075506 -2.213634 -12.145290 25.885932 3.935708 -13.655923 -15.112837 0.000000 -0.000000 0.000000 2.514774 0.441267 2.363821 0.629236 -2.628118 12.553574 -1.359314 -3.059986 -1.897138 3.057780 4.131932 -1.331233 -1.397775 4.295961 20.612027 -29.788786 1.360041 3.919181 -57.051726 -6.084555 8.428798 10.395707 -27.280030 -3.661889 -1.334665 -8.673491 -3.956203 29.651899 5.614748 3.289902 51.603676 7.143978 14.387567 -9.222411 28.012966 -4.443017 1.682950 9.046405 -3.492240 
0.967842 3.024091 0.985480 -71.565782 -0.806752 86.286715 -0.156406 4.914048 6.917375 -5.326678 2.304872 0.090048 3.102016 15.891809 -14.838436 0.000000 -0.000000 0.000000 -1.875645 -7.780466 -3.934361 -2.914021 -12.361922 28.220435 4.408217 -14.026946 -14.993543 0.000000 -0.000000 0.000000 2.083551 0.133228 2.502975 0.695835 -2.718906 12.578829 -1.351968 -3.079171 -1.878907 3.201494 3.978628 -1.555919 -1.171298 4.212119 20.386613 -29.516546 1.117520 3.809543 -57.125939 -6.090160 8.519181 10.285939 -27.258376 -3.777352 -1.128490 -8.523392 -3.964354 29.571849 5.723280 3.138478 51.760328 7.021451 14.571119 -9.321257 28.992562 -4.335440 1.348803 9.268774 -3.572672 
0.966914 3.018458 0.984884 -70.488197 -0.647886 86.010322 -0.242400 4.717179 7.413097 -5.357063 1.381678 -0.083380 3.410836 15.884819 -14.934540 0.000000 -0.000000 0.000000 -1.987141 -7.284910 -5.046143 -3.659665 -12.441181 31.287581 4.907348 -14.462433 -14.623215 0.000000 -0.000000 0.000000 1.480625 -0.251391 2.762993 0.786681 -2.813407 12.721091 -1.344195 -3.106537 -1.906941 3.382225 3.853134 -1.902769 -0.925945 4.155115 20.117256 -29.442968 0.886320 3.649785 -56.826276 -6.131571 8.533501 10.179270 -27.479952 -3.931082 -0.855068 -8.448965 -3.931401 29.696865 5.852045 3.009903 51.620019 6.947282 14.780378 -9.296985 29.851357 -4.029755 0.882880 9.525823 -3.214247 
0.966616 3.015258 0.984462 -69.913056 -0.558694 85.828100 -0.292937 4.563449 7.663333 -5.402689 0.986687 -0.082365 3.578260 15.879743 -15.034472 0.000000 -0.000000 0.000000 -2.095704 -6.962217 -5.735519 -4.047782 -12.469569 33.171908 5.161841 -14.664485 -14.363702 0.000000 -0.000000 0.000000 1.170479 -0.415305 2.975944 0.804389 -2.822562 12.810792 -1.373034 -3.125443 -1.912344 3.504826 3.803464 -2.127106 -0.785861 4.052336 19.963100 -29.366981 0.685798 3.595556 -56.588463 -6.207083 8.538413 10.145120 -27.644014 -4.023328 -0.786098 -8.442618 -3.860482 29.803815 5.947002 2.959760 51.509709 6.895124 14.849764 -9.351798 30.147925 -3.921337 0.810950 9.570716 -2.993177 
0.966442 3.011466 0.983919 -69.297855 -0.409992 85.621934 -0.293554 4.350750 7.894549 -5.490376 0.448582 0.047315 3.877556 15.931344 -15.275356 0.000000 -0.000000 0.000000 -2.257857 -6.557786 -6.860306 -4.586624 -12.587389 35.926706 5.514826 -14.840622 -13.708785 0.000000 -0.000000 0.000000 0.836476 -0.571202 3.252150 0.819066 -2.733236 12.944629 -1.451826 -3.102734 -1.967294 3.621974 3.692719 -2.353067 -0.628219 3.855853 19.747865 -29.216313 0.414276 3.526072 -56.230711 -6.356029 8.682064 10.057870 -27.815013 -4.091393 -0.849530 -8.450373 -3.716427 29.906622 6.039442 2.896448 51.470116 6.768765 14.870713 -9.514719 30.250825 -4.137221 1.135903 9.479005 -3.184432 
0.966472 3.008092 0.983394 -68.874042 -0.292030 85.392810 -0.255834 4.187530 8.100332 -5.692174 -0.082069 0.269301 4.194264 16.089011 -15.540402 0.000000 -0.000000 0.000000 -2.513738 -5.976414 -8.207501 -5.045409 -12.580625 38.989621 5.735190 -14.964446 -12.730264 0.000000 -0.000000 0.000000 0.545885 -0.723363 3.619964 0.794172 -2.512060 13.044590 -1.590127 -3.058020 -2.061373 3.709168 3.491274 -2.599242 -0.524009 3.724286 19.655922 -29.081400 0.157998 3.472055 -55.767011 -6.547744 8.970022 10.000913 -27.889540 -4.187430 -0.891676 -8.484925 -3.610884 30.020238 6.121128 2.836688 51.502234 6.692508 14.899669 -9.612332 29.938273 -4.696168 1.698825 9.302404 -3.969559 
0.966691 3.005246 0.982962 -68.589923 -0.195041 85.195695 -0.202730 4.012306 8.246149 -5.973316 -0.428329 0.497438 4.443029 16.315143 -15.764400 0.000000 -0.000000 0.000000 -2.853943 -5.285465 -9.704346 -5.168156 -12.530380 42.028968 5.540734 -15.097328 -11.761191 0.000000 -0.000000 0.000000 0.314261 -0.897379 3.993591 0.730918 -2.221854 13.106308 -1.790336 -3.008700 -2.161697 3.818302 3.450834 -2.900828 -0.462222 3.608054 19.663397 -28.965988 -0.029527 3.396528 -55.205804 -6.796457 9.251792 9.903258 -27.823917 -4.236143 -0.950816 -8.597516 -3.432116 30.232378 6.178273 2.812616 51.504046 6.717455 14.994526 -9.591262 29.308942 -4.982211 2.104844 9.160562 -4.420815 
